<svg width="1580" height="600" viewBox="0 0 1580 600" fill="none" xmlns="http://www.w3.org/2000/svg">
<rect width="1580" height="600" rx="15" fill="#D2D38E"/>
<g filter="url(#filter0_i)">
<path d="M40.9091 90C40.9091 81.7157 47.6248 75 55.9091 75H185C193.284 75 200 81.7157 200 90V510C200 518.284 193.284 525 185 525H55.9091C47.6249 525 40.9091 518.284 40.9091 510V90Z" fill="#04A759"/>
</g>
<g filter="url(#filter1_i)">
<path d="M1539.09 511C1539.09 519.284 1532.38 526 1524.09 526H1395C1386.72 526 1380 519.284 1380 511V91C1380 82.7157 1386.72 76 1395 76H1524.09C1532.38 76 1539.09 82.7157 1539.09 91V511Z" fill="#04A759"/>
</g>
<g filter="url(#filter2_i)">
<path d="M233.545 73.296C233.545 65.0117 240.261 58.296 248.545 58.296H348.545C356.83 58.296 363.545 65.0117 363.545 73.296V245C363.545 253.284 356.83 260 348.545 260H248.545C240.261 260 233.545 253.284 233.545 245V73.296Z" fill="#04A759"/>
</g>
<g filter="url(#filter3_i)">
<path d="M397.545 73.296C397.545 65.0117 404.261 58.296 412.545 58.296H512.545C520.83 58.296 527.545 65.0117 527.545 73.296V245C527.545 253.284 520.83 260 512.545 260H412.545C404.261 260 397.545 253.284 397.545 245V73.296Z" fill="#04A759"/>
</g>
<g filter="url(#filter4_i)">
<path d="M561.545 73.296C561.545 65.0117 568.261 58.296 576.545 58.296H676.545C684.83 58.296 691.545 65.0117 691.545 73.296V245C691.545 253.284 684.83 260 676.545 260H576.545C568.261 260 561.545 253.284 561.545 245V73.296Z" fill="#04A759"/>
</g>
<g filter="url(#filter5_i)">
<path d="M725.545 73.296C725.545 65.0117 732.261 58.296 740.545 58.296H840.545C848.83 58.296 855.545 65.0117 855.545 73.296V245C855.545 253.284 848.83 260 840.545 260H740.545C732.261 260 725.545 253.284 725.545 245V73.296Z" fill="#04A759"/>
</g>
<g filter="url(#filter6_i)">
<path d="M889.545 73.296C889.545 65.0117 896.261 58.296 904.545 58.296H1004.55C1012.83 58.296 1019.55 65.0117 1019.55 73.296V245C1019.55 253.284 1012.83 260 1004.55 260H904.545C896.261 260 889.545 253.284 889.545 245V73.296Z" fill="#04A759"/>
</g>
<g filter="url(#filter7_i)">
<path d="M1052.55 73.296C1052.55 65.0117 1059.26 58.296 1067.55 58.296H1167.55C1175.83 58.296 1182.55 65.0117 1182.55 73.296V245C1182.55 253.284 1175.83 260 1167.55 260H1067.55C1059.26 260 1052.55 253.284 1052.55 245V73.296Z" fill="#04A759"/>
</g>
<g filter="url(#filter8_i)">
<path d="M1215.55 73.296C1215.55 65.0117 1222.26 58.296 1230.55 58.296H1330.55C1338.83 58.296 1345.55 65.0117 1345.55 73.296V245C1345.55 253.284 1338.83 260 1330.55 260H1230.55C1222.26 260 1215.55 253.284 1215.55 245V73.296Z" fill="#04A759"/>
</g>
<g filter="url(#filter9_i)">
<path d="M364.455 526.704C364.455 534.988 357.739 541.704 349.455 541.704H249.455C241.17 541.704 234.455 534.988 234.455 526.704L234.455 355C234.455 346.716 241.17 340 249.455 340H349.455C357.739 340 364.455 346.716 364.455 355V526.704Z" fill="#04A759"/>
</g>
<g filter="url(#filter10_i)">
<path d="M528.455 526.704C528.455 534.988 521.739 541.704 513.455 541.704H413.455C405.17 541.704 398.455 534.988 398.455 526.704V355C398.455 346.716 405.17 340 413.455 340H513.455C521.739 340 528.455 346.716 528.455 355V526.704Z" fill="#04A759"/>
</g>
<g filter="url(#filter11_i)">
<path d="M692.455 526.704C692.455 534.988 685.739 541.704 677.455 541.704H577.455C569.17 541.704 562.455 534.988 562.455 526.704V355C562.455 346.716 569.17 340 577.455 340H677.455C685.739 340 692.455 346.716 692.455 355V526.704Z" fill="#04A759"/>
</g>
<g filter="url(#filter12_i)">
<path d="M856.455 526.704C856.455 534.988 849.739 541.704 841.455 541.704H741.455C733.17 541.704 726.455 534.988 726.455 526.704V355C726.455 346.716 733.17 340 741.455 340H841.455C849.739 340 856.455 346.716 856.455 355V526.704Z" fill="#04A759"/>
</g>
<g filter="url(#filter13_i)">
<path d="M1020.45 526.704C1020.45 534.988 1013.74 541.704 1005.45 541.704H905.455C897.17 541.704 890.455 534.988 890.455 526.704V355C890.455 346.716 897.17 340 905.455 340H1005.45C1013.74 340 1020.45 346.716 1020.45 355V526.704Z" fill="#04A759"/>
</g>
<g filter="url(#filter14_i)">
<path d="M1183.45 526.704C1183.45 534.988 1176.74 541.704 1168.45 541.704H1068.45C1060.17 541.704 1053.45 534.988 1053.45 526.704V355C1053.45 346.716 1060.17 340 1068.45 340H1168.45C1176.74 340 1183.45 346.716 1183.45 355V526.704Z" fill="#04A759"/>
</g>
<g filter="url(#filter15_i)">
<path d="M1346.45 526.704C1346.45 534.988 1339.74 541.704 1331.45 541.704H1231.45C1223.17 541.704 1216.45 534.988 1216.45 526.704V355C1216.45 346.716 1223.17 340 1231.45 340H1331.45C1339.74 340 1346.45 346.716 1346.45 355V526.704Z" fill="#04A759"/>
</g>
<defs>
<filter id="filter0_i" x="40.9091" y="75" width="159.091" height="450" filterUnits="userSpaceOnUse" color-interpolation-filters="sRGB">
<feFlood flood-opacity="0" result="BackgroundImageFix"/>
<feBlend mode="normal" in="SourceGraphic" in2="BackgroundImageFix" result="shape"/>
<feColorMatrix in="SourceAlpha" type="matrix" values="0 0 0 0 0 0 0 0 0 0 0 0 0 0 0 0 0 0 127 0" result="hardAlpha"/>
<feOffset/>
<feGaussianBlur stdDeviation="3.5"/>
<feComposite in2="hardAlpha" operator="arithmetic" k2="-1" k3="1"/>
<feColorMatrix type="matrix" values="0 0 0 0 0 0 0 0 0 0 0 0 0 0 0 0 0 0 0.25 0"/>
<feBlend mode="normal" in2="shape" result="effect1_innerShadow"/>
</filter>
<filter id="filter1_i" x="1380" y="76" width="159.091" height="450" filterUnits="userSpaceOnUse" color-interpolation-filters="sRGB">
<feFlood flood-opacity="0" result="BackgroundImageFix"/>
<feBlend mode="normal" in="SourceGraphic" in2="BackgroundImageFix" result="shape"/>
<feColorMatrix in="SourceAlpha" type="matrix" values="0 0 0 0 0 0 0 0 0 0 0 0 0 0 0 0 0 0 127 0" result="hardAlpha"/>
<feOffset/>
<feGaussianBlur stdDeviation="3.5"/>
<feComposite in2="hardAlpha" operator="arithmetic" k2="-1" k3="1"/>
<feColorMatrix type="matrix" values="0 0 0 0 0 0 0 0 0 0 0 0 0 0 0 0 0 0 0.25 0"/>
<feBlend mode="normal" in2="shape" result="effect1_innerShadow"/>
</filter>
<filter id="filter2_i" x="233.545" y="58.296" width="130" height="201.704" filterUnits="userSpaceOnUse" color-interpolation-filters="sRGB">
<feFlood flood-opacity="0" result="BackgroundImageFix"/>
<feBlend mode="normal" in="SourceGraphic" in2="BackgroundImageFix" result="shape"/>
<feColorMatrix in="SourceAlpha" type="matrix" values="0 0 0 0 0 0 0 0 0 0 0 0 0 0 0 0 0 0 127 0" result="hardAlpha"/>
<feOffset/>
<feGaussianBlur stdDeviation="3.5"/>
<feComposite in2="hardAlpha" operator="arithmetic" k2="-1" k3="1"/>
<feColorMatrix type="matrix" values="0 0 0 0 0 0 0 0 0 0 0 0 0 0 0 0 0 0 0.25 0"/>
<feBlend mode="normal" in2="shape" result="effect1_innerShadow"/>
</filter>
<filter id="filter3_i" x="397.545" y="58.296" width="130" height="201.704" filterUnits="userSpaceOnUse" color-interpolation-filters="sRGB">
<feFlood flood-opacity="0" result="BackgroundImageFix"/>
<feBlend mode="normal" in="SourceGraphic" in2="BackgroundImageFix" result="shape"/>
<feColorMatrix in="SourceAlpha" type="matrix" values="0 0 0 0 0 0 0 0 0 0 0 0 0 0 0 0 0 0 127 0" result="hardAlpha"/>
<feOffset/>
<feGaussianBlur stdDeviation="3.5"/>
<feComposite in2="hardAlpha" operator="arithmetic" k2="-1" k3="1"/>
<feColorMatrix type="matrix" values="0 0 0 0 0 0 0 0 0 0 0 0 0 0 0 0 0 0 0.25 0"/>
<feBlend mode="normal" in2="shape" result="effect1_innerShadow"/>
</filter>
<filter id="filter4_i" x="561.545" y="58.296" width="130" height="201.704" filterUnits="userSpaceOnUse" color-interpolation-filters="sRGB">
<feFlood flood-opacity="0" result="BackgroundImageFix"/>
<feBlend mode="normal" in="SourceGraphic" in2="BackgroundImageFix" result="shape"/>
<feColorMatrix in="SourceAlpha" type="matrix" values="0 0 0 0 0 0 0 0 0 0 0 0 0 0 0 0 0 0 127 0" result="hardAlpha"/>
<feOffset/>
<feGaussianBlur stdDeviation="3.5"/>
<feComposite in2="hardAlpha" operator="arithmetic" k2="-1" k3="1"/>
<feColorMatrix type="matrix" values="0 0 0 0 0 0 0 0 0 0 0 0 0 0 0 0 0 0 0.25 0"/>
<feBlend mode="normal" in2="shape" result="effect1_innerShadow"/>
</filter>
<filter id="filter5_i" x="725.545" y="58.296" width="130" height="201.704" filterUnits="userSpaceOnUse" color-interpolation-filters="sRGB">
<feFlood flood-opacity="0" result="BackgroundImageFix"/>
<feBlend mode="normal" in="SourceGraphic" in2="BackgroundImageFix" result="shape"/>
<feColorMatrix in="SourceAlpha" type="matrix" values="0 0 0 0 0 0 0 0 0 0 0 0 0 0 0 0 0 0 127 0" result="hardAlpha"/>
<feOffset/>
<feGaussianBlur stdDeviation="3.5"/>
<feComposite in2="hardAlpha" operator="arithmetic" k2="-1" k3="1"/>
<feColorMatrix type="matrix" values="0 0 0 0 0 0 0 0 0 0 0 0 0 0 0 0 0 0 0.25 0"/>
<feBlend mode="normal" in2="shape" result="effect1_innerShadow"/>
</filter>
<filter id="filter6_i" x="889.545" y="58.296" width="130" height="201.704" filterUnits="userSpaceOnUse" color-interpolation-filters="sRGB">
<feFlood flood-opacity="0" result="BackgroundImageFix"/>
<feBlend mode="normal" in="SourceGraphic" in2="BackgroundImageFix" result="shape"/>
<feColorMatrix in="SourceAlpha" type="matrix" values="0 0 0 0 0 0 0 0 0 0 0 0 0 0 0 0 0 0 127 0" result="hardAlpha"/>
<feOffset/>
<feGaussianBlur stdDeviation="3.5"/>
<feComposite in2="hardAlpha" operator="arithmetic" k2="-1" k3="1"/>
<feColorMatrix type="matrix" values="0 0 0 0 0 0 0 0 0 0 0 0 0 0 0 0 0 0 0.25 0"/>
<feBlend mode="normal" in2="shape" result="effect1_innerShadow"/>
</filter>
<filter id="filter7_i" x="1052.55" y="58.296" width="130" height="201.704" filterUnits="userSpaceOnUse" color-interpolation-filters="sRGB">
<feFlood flood-opacity="0" result="BackgroundImageFix"/>
<feBlend mode="normal" in="SourceGraphic" in2="BackgroundImageFix" result="shape"/>
<feColorMatrix in="SourceAlpha" type="matrix" values="0 0 0 0 0 0 0 0 0 0 0 0 0 0 0 0 0 0 127 0" result="hardAlpha"/>
<feOffset/>
<feGaussianBlur stdDeviation="3.5"/>
<feComposite in2="hardAlpha" operator="arithmetic" k2="-1" k3="1"/>
<feColorMatrix type="matrix" values="0 0 0 0 0 0 0 0 0 0 0 0 0 0 0 0 0 0 0.25 0"/>
<feBlend mode="normal" in2="shape" result="effect1_innerShadow"/>
</filter>
<filter id="filter8_i" x="1215.55" y="58.296" width="130" height="201.704" filterUnits="userSpaceOnUse" color-interpolation-filters="sRGB">
<feFlood flood-opacity="0" result="BackgroundImageFix"/>
<feBlend mode="normal" in="SourceGraphic" in2="BackgroundImageFix" result="shape"/>
<feColorMatrix in="SourceAlpha" type="matrix" values="0 0 0 0 0 0 0 0 0 0 0 0 0 0 0 0 0 0 127 0" result="hardAlpha"/>
<feOffset/>
<feGaussianBlur stdDeviation="3.5"/>
<feComposite in2="hardAlpha" operator="arithmetic" k2="-1" k3="1"/>
<feColorMatrix type="matrix" values="0 0 0 0 0 0 0 0 0 0 0 0 0 0 0 0 0 0 0.25 0"/>
<feBlend mode="normal" in2="shape" result="effect1_innerShadow"/>
</filter>
<filter id="filter9_i" x="234.455" y="340" width="130" height="201.704" filterUnits="userSpaceOnUse" color-interpolation-filters="sRGB">
<feFlood flood-opacity="0" result="BackgroundImageFix"/>
<feBlend mode="normal" in="SourceGraphic" in2="BackgroundImageFix" result="shape"/>
<feColorMatrix in="SourceAlpha" type="matrix" values="0 0 0 0 0 0 0 0 0 0 0 0 0 0 0 0 0 0 127 0" result="hardAlpha"/>
<feOffset/>
<feGaussianBlur stdDeviation="3.5"/>
<feComposite in2="hardAlpha" operator="arithmetic" k2="-1" k3="1"/>
<feColorMatrix type="matrix" values="0 0 0 0 0 0 0 0 0 0 0 0 0 0 0 0 0 0 0.25 0"/>
<feBlend mode="normal" in2="shape" result="effect1_innerShadow"/>
</filter>
<filter id="filter10_i" x="398.455" y="340" width="130" height="201.704" filterUnits="userSpaceOnUse" color-interpolation-filters="sRGB">
<feFlood flood-opacity="0" result="BackgroundImageFix"/>
<feBlend mode="normal" in="SourceGraphic" in2="BackgroundImageFix" result="shape"/>
<feColorMatrix in="SourceAlpha" type="matrix" values="0 0 0 0 0 0 0 0 0 0 0 0 0 0 0 0 0 0 127 0" result="hardAlpha"/>
<feOffset/>
<feGaussianBlur stdDeviation="3.5"/>
<feComposite in2="hardAlpha" operator="arithmetic" k2="-1" k3="1"/>
<feColorMatrix type="matrix" values="0 0 0 0 0 0 0 0 0 0 0 0 0 0 0 0 0 0 0.25 0"/>
<feBlend mode="normal" in2="shape" result="effect1_innerShadow"/>
</filter>
<filter id="filter11_i" x="562.455" y="340" width="130" height="201.704" filterUnits="userSpaceOnUse" color-interpolation-filters="sRGB">
<feFlood flood-opacity="0" result="BackgroundImageFix"/>
<feBlend mode="normal" in="SourceGraphic" in2="BackgroundImageFix" result="shape"/>
<feColorMatrix in="SourceAlpha" type="matrix" values="0 0 0 0 0 0 0 0 0 0 0 0 0 0 0 0 0 0 127 0" result="hardAlpha"/>
<feOffset/>
<feGaussianBlur stdDeviation="3.5"/>
<feComposite in2="hardAlpha" operator="arithmetic" k2="-1" k3="1"/>
<feColorMatrix type="matrix" values="0 0 0 0 0 0 0 0 0 0 0 0 0 0 0 0 0 0 0.25 0"/>
<feBlend mode="normal" in2="shape" result="effect1_innerShadow"/>
</filter>
<filter id="filter12_i" x="726.455" y="340" width="130" height="201.704" filterUnits="userSpaceOnUse" color-interpolation-filters="sRGB">
<feFlood flood-opacity="0" result="BackgroundImageFix"/>
<feBlend mode="normal" in="SourceGraphic" in2="BackgroundImageFix" result="shape"/>
<feColorMatrix in="SourceAlpha" type="matrix" values="0 0 0 0 0 0 0 0 0 0 0 0 0 0 0 0 0 0 127 0" result="hardAlpha"/>
<feOffset/>
<feGaussianBlur stdDeviation="3.5"/>
<feComposite in2="hardAlpha" operator="arithmetic" k2="-1" k3="1"/>
<feColorMatrix type="matrix" values="0 0 0 0 0 0 0 0 0 0 0 0 0 0 0 0 0 0 0.25 0"/>
<feBlend mode="normal" in2="shape" result="effect1_innerShadow"/>
</filter>
<filter id="filter13_i" x="890.455" y="340" width="130" height="201.704" filterUnits="userSpaceOnUse" color-interpolation-filters="sRGB">
<feFlood flood-opacity="0" result="BackgroundImageFix"/>
<feBlend mode="normal" in="SourceGraphic" in2="BackgroundImageFix" result="shape"/>
<feColorMatrix in="SourceAlpha" type="matrix" values="0 0 0 0 0 0 0 0 0 0 0 0 0 0 0 0 0 0 127 0" result="hardAlpha"/>
<feOffset/>
<feGaussianBlur stdDeviation="3.5"/>
<feComposite in2="hardAlpha" operator="arithmetic" k2="-1" k3="1"/>
<feColorMatrix type="matrix" values="0 0 0 0 0 0 0 0 0 0 0 0 0 0 0 0 0 0 0.25 0"/>
<feBlend mode="normal" in2="shape" result="effect1_innerShadow"/>
</filter>
<filter id="filter14_i" x="1053.45" y="340" width="130" height="201.704" filterUnits="userSpaceOnUse" color-interpolation-filters="sRGB">
<feFlood flood-opacity="0" result="BackgroundImageFix"/>
<feBlend mode="normal" in="SourceGraphic" in2="BackgroundImageFix" result="shape"/>
<feColorMatrix in="SourceAlpha" type="matrix" values="0 0 0 0 0 0 0 0 0 0 0 0 0 0 0 0 0 0 127 0" result="hardAlpha"/>
<feOffset/>
<feGaussianBlur stdDeviation="3.5"/>
<feComposite in2="hardAlpha" operator="arithmetic" k2="-1" k3="1"/>
<feColorMatrix type="matrix" values="0 0 0 0 0 0 0 0 0 0 0 0 0 0 0 0 0 0 0.25 0"/>
<feBlend mode="normal" in2="shape" result="effect1_innerShadow"/>
</filter>
<filter id="filter15_i" x="1216.45" y="340" width="130" height="201.704" filterUnits="userSpaceOnUse" color-interpolation-filters="sRGB">
<feFlood flood-opacity="0" result="BackgroundImageFix"/>
<feBlend mode="normal" in="SourceGraphic" in2="BackgroundImageFix" result="shape"/>
<feColorMatrix in="SourceAlpha" type="matrix" values="0 0 0 0 0 0 0 0 0 0 0 0 0 0 0 0 0 0 127 0" result="hardAlpha"/>
<feOffset/>
<feGaussianBlur stdDeviation="3.5"/>
<feComposite in2="hardAlpha" operator="arithmetic" k2="-1" k3="1"/>
<feColorMatrix type="matrix" values="0 0 0 0 0 0 0 0 0 0 0 0 0 0 0 0 0 0 0.25 0"/>
<feBlend mode="normal" in2="shape" result="effect1_innerShadow"/>
</filter>
</defs>
</svg>
